# xmcd
#
# Track frame offsets: 
#        150
#        21044
#        36492
#        55308
#        74338
#        94898
#        110442
#        128327
#        150550
#        172623
#
# Disc length: 2538 seconds
#
# Revision: 0
# Processed by: cddbd v1.5.2PL0 Copyright (c) Steve Scherf et al.
# Submitted via: ExactAudioCopy v0.99pb5
#
DISCID=7709e80a
DTITLE=Barry McDonald - Write The Song
DYEAR=2001
DGENRE=Gospel
TTITLE0=Angels Fly Away
TTITLE1=For Heaven's Sake
TTITLE2=Write The Song
TTITLE3=Healer Of My Heart
TTITLE4=Jesus Can
TTITLE5=Search My Heart
TTITLE6=The Mercy Of Your Grace
TTITLE7=Living Without You Is Killing Me
TTITLE8=I'll Never Get Over The Blood That I'm Under
TTITLE9=No Defeat
EXTD=
EXTT0=
EXTT1=
EXTT2=
EXTT3=
EXTT4=
EXTT5=
EXTT6=
EXTT7=
EXTT8=
EXTT9=
PLAYORDER=
